<mxfile host="app.diagrams.net" modified="2021-07-22T05:53:45.692Z" agent="5.0 (Windows NT 10.0; Win64; x64) AppleWebKit/537.36 (KHTML, like Gecko) Chrome/91.0.4472.124 Safari/537.36 Edg/91.0.864.70" etag="xhEzbOLUYuaJTIHkzdac" version="14.8.6" type="github">
  <diagram id="W4_oKClHGPwrAofHergB" name="第 1 页">
    <mxGraphModel dx="1024" dy="533" grid="0" gridSize="10" guides="1" tooltips="1" connect="1" arrows="1" fold="1" page="1" pageScale="1" pageWidth="2339" pageHeight="3300" math="0" shadow="1">
      <root>
        <mxCell id="0" />
        <mxCell id="1" parent="0" />
        <mxCell id="2CmZ-i93V_n3YH0BTP-C-30" value="&lt;font style=&quot;font-size: 16px&quot;&gt;Packet&lt;/font&gt;" style="rounded=0;orthogonalLoop=1;jettySize=auto;html=1;exitX=1;exitY=0.5;exitDx=0;exitDy=0;entryX=0;entryY=0.5;entryDx=0;entryDy=0;fontSize=16;shadow=1;" edge="1" parent="1" source="2CmZ-i93V_n3YH0BTP-C-22" target="2CmZ-i93V_n3YH0BTP-C-23">
          <mxGeometry relative="1" as="geometry" />
        </mxCell>
        <mxCell id="2CmZ-i93V_n3YH0BTP-C-31" value="Packet" style="edgeStyle=none;rounded=0;orthogonalLoop=1;jettySize=auto;html=1;exitX=1;exitY=0.5;exitDx=0;exitDy=0;entryX=0;entryY=0.5;entryDx=0;entryDy=0;fontSize=16;shadow=1;" edge="1" parent="1" source="2CmZ-i93V_n3YH0BTP-C-22" target="2CmZ-i93V_n3YH0BTP-C-25">
          <mxGeometry relative="1" as="geometry" />
        </mxCell>
        <mxCell id="2CmZ-i93V_n3YH0BTP-C-22" value="&lt;font style=&quot;font-size: 16px&quot;&gt;Dispatcher&lt;/font&gt;" style="rounded=0;whiteSpace=wrap;html=1;fillColor=#cce5ff;strokeColor=none;" vertex="1" parent="1">
          <mxGeometry x="220" y="380" width="80" height="130" as="geometry" />
        </mxCell>
        <mxCell id="2CmZ-i93V_n3YH0BTP-C-48" value="Loop to receive packet" style="edgeStyle=orthogonalEdgeStyle;rounded=0;orthogonalLoop=1;jettySize=auto;html=1;entryX=0.5;entryY=0;entryDx=0;entryDy=0;fontSize=16;shadow=1;" edge="1" parent="1" source="2CmZ-i93V_n3YH0BTP-C-23" target="2CmZ-i93V_n3YH0BTP-C-22">
          <mxGeometry x="-0.3659" relative="1" as="geometry">
            <Array as="points">
              <mxPoint x="605" y="150" />
              <mxPoint x="260" y="150" />
            </Array>
            <mxPoint as="offset" />
          </mxGeometry>
        </mxCell>
        <mxCell id="2CmZ-i93V_n3YH0BTP-C-23" value="" style="rounded=0;whiteSpace=wrap;html=1;fillColor=#cce5ff;strokeColor=none;" vertex="1" parent="1">
          <mxGeometry x="430" y="190" width="350" height="190" as="geometry" />
        </mxCell>
        <mxCell id="2CmZ-i93V_n3YH0BTP-C-49" value="Loop receive packet" style="edgeStyle=orthogonalEdgeStyle;rounded=0;orthogonalLoop=1;jettySize=auto;html=1;exitX=0.5;exitY=1;exitDx=0;exitDy=0;entryX=0.5;entryY=1;entryDx=0;entryDy=0;shadow=1;fontSize=16;" edge="1" parent="1" source="2CmZ-i93V_n3YH0BTP-C-25" target="2CmZ-i93V_n3YH0BTP-C-22">
          <mxGeometry x="-0.374" relative="1" as="geometry">
            <Array as="points">
              <mxPoint x="605" y="731" />
              <mxPoint x="260" y="731" />
            </Array>
            <mxPoint as="offset" />
          </mxGeometry>
        </mxCell>
        <mxCell id="2CmZ-i93V_n3YH0BTP-C-25" value="" style="rounded=0;whiteSpace=wrap;html=1;fillColor=#cce5ff;strokeColor=none;" vertex="1" parent="1">
          <mxGeometry x="430" y="500" width="350" height="190" as="geometry" />
        </mxCell>
        <mxCell id="2CmZ-i93V_n3YH0BTP-C-26" value="&lt;font style=&quot;font-size: 16px&quot;&gt;Driver EAL&lt;/font&gt;" style="rounded=0;whiteSpace=wrap;html=1;fillColor=#eeeeee;shadow=1;glass=0;strokeColor=none;" vertex="1" parent="1">
          <mxGeometry x="40" y="255" width="80" height="380" as="geometry" />
        </mxCell>
        <mxCell id="2CmZ-i93V_n3YH0BTP-C-27" value="Packet" style="endArrow=classic;html=1;fontSize=16;shadow=1;" edge="1" parent="1">
          <mxGeometry width="50" height="50" relative="1" as="geometry">
            <mxPoint x="130" y="410" as="sourcePoint" />
            <mxPoint x="210" y="410" as="targetPoint" />
            <Array as="points" />
          </mxGeometry>
        </mxCell>
        <mxCell id="2CmZ-i93V_n3YH0BTP-C-28" value="Packet" style="endArrow=classic;html=1;fontSize=16;shadow=1;" edge="1" parent="1">
          <mxGeometry width="50" height="50" relative="1" as="geometry">
            <mxPoint x="130" y="444.5" as="sourcePoint" />
            <mxPoint x="210" y="444.5" as="targetPoint" />
            <Array as="points">
              <mxPoint x="170" y="444.5" />
              <mxPoint x="190" y="444.5" />
            </Array>
          </mxGeometry>
        </mxCell>
        <mxCell id="2CmZ-i93V_n3YH0BTP-C-29" value="Packet" style="endArrow=classic;html=1;fontSize=16;shadow=1;" edge="1" parent="1">
          <mxGeometry width="50" height="50" relative="1" as="geometry">
            <mxPoint x="130" y="480" as="sourcePoint" />
            <mxPoint x="210" y="480" as="targetPoint" />
            <Array as="points">
              <mxPoint x="170" y="480" />
              <mxPoint x="190" y="480" />
            </Array>
          </mxGeometry>
        </mxCell>
        <mxCell id="2CmZ-i93V_n3YH0BTP-C-32" value="Worker" style="text;html=1;strokeColor=none;fillColor=none;align=center;verticalAlign=middle;whiteSpace=wrap;rounded=0;shadow=1;glass=0;fontSize=16;" vertex="1" parent="1">
          <mxGeometry x="440" y="200" width="40" height="20" as="geometry" />
        </mxCell>
        <mxCell id="2CmZ-i93V_n3YH0BTP-C-34" value="Worker" style="text;html=1;strokeColor=none;fillColor=none;align=center;verticalAlign=middle;whiteSpace=wrap;rounded=0;shadow=1;glass=0;fontSize=16;" vertex="1" parent="1">
          <mxGeometry x="440" y="510" width="40" height="20" as="geometry" />
        </mxCell>
        <mxCell id="2CmZ-i93V_n3YH0BTP-C-50" style="edgeStyle=orthogonalEdgeStyle;rounded=0;orthogonalLoop=1;jettySize=auto;html=1;exitX=1;exitY=0.5;exitDx=0;exitDy=0;shadow=1;fontSize=16;" edge="1" parent="1" source="2CmZ-i93V_n3YH0BTP-C-35" target="2CmZ-i93V_n3YH0BTP-C-36">
          <mxGeometry relative="1" as="geometry" />
        </mxCell>
        <mxCell id="2CmZ-i93V_n3YH0BTP-C-35" value="Flow" style="rounded=0;whiteSpace=wrap;html=1;shadow=1;glass=0;fontSize=16;fillColor=#d5e8d4;strokeColor=#82b366;" vertex="1" parent="1">
          <mxGeometry x="450" y="230" width="80" height="40" as="geometry" />
        </mxCell>
        <mxCell id="2CmZ-i93V_n3YH0BTP-C-51" style="edgeStyle=orthogonalEdgeStyle;rounded=0;orthogonalLoop=1;jettySize=auto;html=1;exitX=1;exitY=0.5;exitDx=0;exitDy=0;shadow=1;fontSize=16;" edge="1" parent="1" source="2CmZ-i93V_n3YH0BTP-C-36" target="2CmZ-i93V_n3YH0BTP-C-37">
          <mxGeometry relative="1" as="geometry" />
        </mxCell>
        <mxCell id="2CmZ-i93V_n3YH0BTP-C-36" value="Session" style="rounded=0;whiteSpace=wrap;html=1;shadow=1;glass=0;fontSize=16;fillColor=#d5e8d4;strokeColor=#82b366;" vertex="1" parent="1">
          <mxGeometry x="570" y="230" width="80" height="40" as="geometry" />
        </mxCell>
        <mxCell id="2CmZ-i93V_n3YH0BTP-C-52" style="edgeStyle=orthogonalEdgeStyle;rounded=0;orthogonalLoop=1;jettySize=auto;html=1;exitX=0.5;exitY=1;exitDx=0;exitDy=0;entryX=0.5;entryY=0;entryDx=0;entryDy=0;shadow=1;fontSize=16;" edge="1" parent="1" source="2CmZ-i93V_n3YH0BTP-C-37" target="2CmZ-i93V_n3YH0BTP-C-38">
          <mxGeometry relative="1" as="geometry" />
        </mxCell>
        <mxCell id="2CmZ-i93V_n3YH0BTP-C-37" value="DPI" style="rounded=0;whiteSpace=wrap;html=1;shadow=1;glass=0;fontSize=16;fillColor=#d5e8d4;strokeColor=#82b366;" vertex="1" parent="1">
          <mxGeometry x="690" y="230" width="80" height="40" as="geometry" />
        </mxCell>
        <mxCell id="2CmZ-i93V_n3YH0BTP-C-53" style="edgeStyle=orthogonalEdgeStyle;rounded=0;orthogonalLoop=1;jettySize=auto;html=1;exitX=0;exitY=0.5;exitDx=0;exitDy=0;entryX=1;entryY=0.5;entryDx=0;entryDy=0;shadow=1;fontSize=16;" edge="1" parent="1" source="2CmZ-i93V_n3YH0BTP-C-38" target="2CmZ-i93V_n3YH0BTP-C-39">
          <mxGeometry relative="1" as="geometry" />
        </mxCell>
        <mxCell id="2CmZ-i93V_n3YH0BTP-C-38" value="Hunter" style="rounded=0;whiteSpace=wrap;html=1;shadow=1;glass=0;fontSize=16;fillColor=#d5e8d4;strokeColor=#82b366;" vertex="1" parent="1">
          <mxGeometry x="690" y="310" width="80" height="40" as="geometry" />
        </mxCell>
        <mxCell id="2CmZ-i93V_n3YH0BTP-C-54" style="edgeStyle=orthogonalEdgeStyle;rounded=0;orthogonalLoop=1;jettySize=auto;html=1;exitX=0;exitY=0.5;exitDx=0;exitDy=0;entryX=1;entryY=0.5;entryDx=0;entryDy=0;shadow=1;fontSize=16;" edge="1" parent="1" source="2CmZ-i93V_n3YH0BTP-C-39" target="2CmZ-i93V_n3YH0BTP-C-40">
          <mxGeometry relative="1" as="geometry" />
        </mxCell>
        <mxCell id="2CmZ-i93V_n3YH0BTP-C-39" value="XDR" style="rounded=0;whiteSpace=wrap;html=1;shadow=1;glass=0;fontSize=16;fillColor=#d5e8d4;strokeColor=#82b366;" vertex="1" parent="1">
          <mxGeometry x="570" y="310" width="80" height="40" as="geometry" />
        </mxCell>
        <mxCell id="2CmZ-i93V_n3YH0BTP-C-40" value="Control" style="rounded=0;whiteSpace=wrap;html=1;shadow=1;glass=0;fontSize=16;fillColor=#d5e8d4;strokeColor=#82b366;" vertex="1" parent="1">
          <mxGeometry x="450" y="310" width="80" height="40" as="geometry" />
        </mxCell>
        <mxCell id="2CmZ-i93V_n3YH0BTP-C-65" style="edgeStyle=orthogonalEdgeStyle;rounded=0;orthogonalLoop=1;jettySize=auto;html=1;exitX=1;exitY=0.5;exitDx=0;exitDy=0;entryX=0;entryY=0.5;entryDx=0;entryDy=0;shadow=1;fontSize=16;" edge="1" parent="1" source="2CmZ-i93V_n3YH0BTP-C-42" target="2CmZ-i93V_n3YH0BTP-C-43">
          <mxGeometry relative="1" as="geometry" />
        </mxCell>
        <mxCell id="2CmZ-i93V_n3YH0BTP-C-42" value="Flow" style="rounded=0;whiteSpace=wrap;html=1;shadow=1;glass=0;fontSize=16;fillColor=#d5e8d4;strokeColor=#82b366;" vertex="1" parent="1">
          <mxGeometry x="445" y="550" width="80" height="40" as="geometry" />
        </mxCell>
        <mxCell id="2CmZ-i93V_n3YH0BTP-C-66" style="edgeStyle=orthogonalEdgeStyle;rounded=0;orthogonalLoop=1;jettySize=auto;html=1;exitX=1;exitY=0.5;exitDx=0;exitDy=0;entryX=0;entryY=0.5;entryDx=0;entryDy=0;shadow=1;fontSize=16;" edge="1" parent="1" source="2CmZ-i93V_n3YH0BTP-C-43" target="2CmZ-i93V_n3YH0BTP-C-44">
          <mxGeometry relative="1" as="geometry" />
        </mxCell>
        <mxCell id="2CmZ-i93V_n3YH0BTP-C-43" value="Session" style="rounded=0;whiteSpace=wrap;html=1;shadow=1;glass=0;fontSize=16;fillColor=#d5e8d4;strokeColor=#82b366;" vertex="1" parent="1">
          <mxGeometry x="565" y="550" width="80" height="40" as="geometry" />
        </mxCell>
        <mxCell id="2CmZ-i93V_n3YH0BTP-C-67" style="edgeStyle=orthogonalEdgeStyle;rounded=0;orthogonalLoop=1;jettySize=auto;html=1;exitX=0.5;exitY=1;exitDx=0;exitDy=0;entryX=0.5;entryY=0;entryDx=0;entryDy=0;shadow=1;fontSize=16;" edge="1" parent="1" source="2CmZ-i93V_n3YH0BTP-C-44" target="2CmZ-i93V_n3YH0BTP-C-45">
          <mxGeometry relative="1" as="geometry" />
        </mxCell>
        <mxCell id="2CmZ-i93V_n3YH0BTP-C-44" value="DPI" style="rounded=0;whiteSpace=wrap;html=1;shadow=1;glass=0;fontSize=16;fillColor=#d5e8d4;strokeColor=#82b366;" vertex="1" parent="1">
          <mxGeometry x="685" y="550" width="80" height="40" as="geometry" />
        </mxCell>
        <mxCell id="2CmZ-i93V_n3YH0BTP-C-68" style="edgeStyle=orthogonalEdgeStyle;rounded=0;orthogonalLoop=1;jettySize=auto;html=1;exitX=0;exitY=0.5;exitDx=0;exitDy=0;entryX=1;entryY=0.5;entryDx=0;entryDy=0;shadow=1;fontSize=16;" edge="1" parent="1" source="2CmZ-i93V_n3YH0BTP-C-45" target="2CmZ-i93V_n3YH0BTP-C-46">
          <mxGeometry relative="1" as="geometry" />
        </mxCell>
        <mxCell id="2CmZ-i93V_n3YH0BTP-C-45" value="Hunter" style="rounded=0;whiteSpace=wrap;html=1;shadow=1;glass=0;fontSize=16;fillColor=#d5e8d4;strokeColor=#82b366;" vertex="1" parent="1">
          <mxGeometry x="685" y="630" width="80" height="40" as="geometry" />
        </mxCell>
        <mxCell id="2CmZ-i93V_n3YH0BTP-C-69" style="edgeStyle=orthogonalEdgeStyle;rounded=0;orthogonalLoop=1;jettySize=auto;html=1;exitX=0;exitY=0.5;exitDx=0;exitDy=0;shadow=1;fontSize=16;" edge="1" parent="1" source="2CmZ-i93V_n3YH0BTP-C-46" target="2CmZ-i93V_n3YH0BTP-C-47">
          <mxGeometry relative="1" as="geometry" />
        </mxCell>
        <mxCell id="2CmZ-i93V_n3YH0BTP-C-46" value="XDR" style="rounded=0;whiteSpace=wrap;html=1;shadow=1;glass=0;fontSize=16;fillColor=#d5e8d4;strokeColor=#82b366;" vertex="1" parent="1">
          <mxGeometry x="565" y="630" width="80" height="40" as="geometry" />
        </mxCell>
        <mxCell id="2CmZ-i93V_n3YH0BTP-C-47" value="Control" style="rounded=0;whiteSpace=wrap;html=1;shadow=1;glass=0;fontSize=16;fillColor=#d5e8d4;strokeColor=#82b366;" vertex="1" parent="1">
          <mxGeometry x="445" y="630" width="80" height="40" as="geometry" />
        </mxCell>
      </root>
    </mxGraphModel>
  </diagram>
</mxfile>
